<svg xmlns="http://www.w3.org/2000/svg" viewBox="0 0 200 190">
  <path fill='#23e0f7' d="M72.87 84.15h54.27a26.47 26.47 0 0 0-17.37-25c3.8-3.26 6.51-7.6 6.51-13a16.28 16.28 0 0 0-32.56 0c0 5.43 2.71 9.77 6.51 13a26.47 26.47 0 0 0-17.36 25zm16.28-38A10.85 10.85 0 1 1 100 57a10.89 10.89 0 0 1-10.85-10.84zM100 62.44c10.31 0 18.45 7.05 21.16 16.28H78.84c2.71-9.23 10.85-16.28 21.16-16.28zM147.75 135.16c3.8-3.26 6.51-7.6 6.51-13a16.28 16.28 0 1 0-32.56 0c0 5.43 2.71 9.77 6.51 13a26.47 26.47 0 0 0-17.37 25h54.27a26.47 26.47 0 0 0-17.36-25zm-20.62-13A10.85 10.85 0 1 1 138 133a10.89 10.89 0 0 1-10.87-10.87zM138 138.41c10.31 0 18.45 7.05 21.16 16.28h-41.79A21 21 0 0 1 138 138.41zM71.78 135.16c3.8-3.26 6.51-7.6 6.51-13a16.28 16.28 0 1 0-32.56 0c0 5.43 2.71 9.77 6.51 13a26.47 26.47 0 0 0-17.37 25h54.28a26.47 26.47 0 0 0-17.37-25zm-20.62-13A10.85 10.85 0 1 1 62 133a10.89 10.89 0 0 1-10.84-10.87zm-10.31 32.53A21.65 21.65 0 0 1 62 138.41c10.31 0 18.45 7.05 21.16 16.28zM62 62.44h10.87V57H62a5.13 5.13 0 0 0-5.43 5.43v38H62zM138 100.43h5.43v-38A5.13 5.13 0 0 0 138 57h-10.87v5.43H138z"/>
</svg>
