<svg xmlns="http://www.w3.org/2000/svg" viewBox="0 0 287.45 283">
  <path fill='#23e0f7' d="M54 63.36h179.44a2.9 2.9 0 0 1 2.89 2.89v150.5a2.9 2.9 0 0 1-2.89 2.89H54a2.9 2.9 0 0 1-2.89-2.89V66.25A2.9 2.9 0 0 1 54 63.36zm127.58 138.92a2.89 2.89 0 1 1 0-5.79h28.71a2.89 2.89 0 0 1 0 5.79zm11.57-14.47a2.89 2.89 0 0 1 0-5.79h28.71a2.89 2.89 0 0 1 0 5.79zM65.58 109.67a2.89 2.89 0 1 1 0-5.79h28.71a2.89 2.89 0 1 1 0 5.79zm11.57 14.47a2.89 2.89 0 1 1 0-5.79h28.71a2.89 2.89 0 1 1 0 5.79zm10.26 14.46h70.71a26 26 0 0 1 43-9.74 26 26 0 0 1 0 36.81 26 26 0 0 1-43-9.74h-34.65v14.47a2.9 2.9 0 0 1-2.89 2.89h-8.69a2.9 2.9 0 0 1-2.89-2.89v-2.89h-5.79v5.79a2.9 2.9 0 0 1-2.89 2.89h-11.5a2.9 2.9 0 0 1-2.89-2.89v-17.5a8.71 8.71 0 0 1-4.65-2.42l-.19-.21a8.64 8.64 0 0 1 .19-12.05l.21-.19a8.64 8.64 0 0 1 5.92-2.35zm72.84 5.79H87.41a2.87 2.87 0 0 0-1.93.74l-.1.11a2.88 2.88 0 0 0-.11 4l.11.1a2.89 2.89 0 0 0 2 .85h1.41a2.9 2.9 0 0 1 2.89 2.89v17.37h5.7v-5.79a2.9 2.9 0 0 1 2.89-2.89h11.58a2.9 2.9 0 0 1 2.89 2.89v2.89h2.89v-14.48a2.9 2.9 0 0 1 2.89-2.89h39.67a2.88 2.88 0 0 1 2.79 2.17 20.28 20.28 0 0 0 34 9.26A20.28 20.28 0 0 0 197 133a20.28 20.28 0 0 0-33.89 9 2.9 2.9 0 0 1-2.86 2.42zm-79.16 8.81a2.9 2.9 0 0 1 .19-3.88m.21-8.37a2.9 2.9 0 0 1 3.88.19m97.88-5.44a11.53 11.53 0 0 1 8.18 3.4 11.56 11.56 0 0 1 0 16.36 11.56 11.56 0 0 1-16.36 0l-.17-.19a11.57 11.57 0 0 1 8.36-19.58zm4.09 7.47a5.8 5.8 0 0 0-8.32 8.07l.14.13a5.8 5.8 0 0 0 8.18 0 5.8 5.8 0 0 0 0-8.18zM94.52 74.93h5.79v5.79h-5.79zm-14.47 0h5.79v5.79h-5.79zm-14.47 0h5.79v5.79h-5.79zm165 17.37H56.9v121.56h173.65zM56.9 86.51h173.65V69.15H56.9z"/>
</svg>
