<svg xmlns="http://www.w3.org/2000/svg" viewBox="0 0 200 190">
  <path fill='#23e0f7' d="M126 22.64a46.18 46.18 0 0 0-43.31 62.42l-55 55v19.76l7.48 7.48h19.72L65.27 157v-7h7l10.38-10.38v-4.09h4.09l7.47-7.53v-4.09h4.09l11.63-11.63A46.28 46.28 0 1 0 126 22.64zm-30.09 95.51h-7.49v7.48l-4.09 4.09h-7.48v7.48l-7 7H59.48v10.38l-7 7h-15l-2.89-2.89 48-48a2.89 2.89 0 0 0-4.09-4.09l-45.07 45.09v-9.18l51.78-51.78a46.61 46.61 0 0 0 19.06 19.06zm30.09-8.68A40.52 40.52 0 1 1 166.57 69 40.56 40.56 0 0 1 126 109.47z"/>
  <path fill='#23e0f7' d="M148.56 46.44a31.88 31.88 0 0 0-45 0l-2 2 45 45 2-2a31.84 31.84 0 0 0 0-45zm-2.16 38.77L109.79 48.6a26.05 26.05 0 0 1 36.61 36.61z"/>
</svg>
