<svg xmlns="http://www.w3.org/2000/svg" viewBox="0 0 124.562 132.173">
  <path stroke='#23e0f7' d="M62.281 128.517l-.187-.107L7.905 97.303V34.871l.188-.108L62.281 3.656l.187.107 54.189 31.107v62.432l-.188.108-54.188 31.107zM8.655 96.868l53.625 30.783 53.625-30.783V35.305L62.281 4.521 8.655 35.305v61.563z"/>
  <path stroke='#23e0f7' stroke-opacity='0.4' d="M62.393 124.93h-.112c-.965 0-1.939-.023-2.894-.069l.024-.499a60.68 60.68 0 0 0 2.869.068h.112v.5zm2.003-.036l-.018-.5a60.783 60.783 0 0 0 2.976-.178l.042.498a61.69 61.69 0 0 1-3 .18zm-7.008-.162a60.935 60.935 0 0 1-2.99-.318l.065-.496c.98.13 1.978.236 2.964.316l-.039.498zm12.003-.221l-.059-.496c.981-.117 1.974-.26 2.95-.427l.084.493c-.984.168-1.985.313-2.975.43zm-16.974-.392a59.133 59.133 0 0 1-2.953-.569l.107-.488c.966.211 1.951.401 2.927.564l-.081.493zm21.919-.408l-.101-.49c.97-.199 1.947-.426 2.904-.673l.125.484c-.965.25-1.95.478-2.928.679zm-26.822-.623a58.693 58.693 0 0 1-2.894-.816l.148-.478a59.61 59.61 0 0 0 2.869.81l-.123.484zm31.682-.591l-.142-.479a58.93 58.93 0 0 0 2.836-.917l.166.472c-.94.33-1.902.641-2.86.924zm-36.48-.85a58.91 58.91 0 0 1-2.82-1.061l.188-.464c.922.374 1.862.728 2.796 1.052l-.164.473zm41.22-.771l-.182-.466a58.578 58.578 0 0 0 2.743-1.151l.205.456a58.67 58.67 0 0 1-2.766 1.161zm-45.889-1.077a59.016 59.016 0 0 1-2.719-1.296l.227-.445a59.57 59.57 0 0 0 2.696 1.285l-.204.456zm50.465-.934l-.221-.449a59.941 59.941 0 0 0 2.637-1.38l.243.438c-.869.482-1.764.95-2.659 1.391zm-54.958-1.302a58.41 58.41 0 0 1-2.599-1.521l.264-.425c.84.521 1.707 1.028 2.576 1.508l-.241.438zm59.349-1.09l-.258-.429a59.337 59.337 0 0 0 2.514-1.598l.278.415c-.831.558-1.684 1.1-2.534 1.612zm-63.635-1.516a59.53 59.53 0 0 1-2.459-1.734l.298-.401c.796.592 1.617 1.17 2.439 1.719l-.278.416zm67.812-1.24l-.293-.405a59.328 59.328 0 0 0 2.371-1.804l.312.39a59.125 59.125 0 0 1-2.39 1.819zm-71.861-1.718a58.703 58.703 0 0 1-2.304-1.934l.331-.375a58.578 58.578 0 0 0 2.284 1.918l-.311.391zm75.793-1.381l-.326-.379a59.804 59.804 0 0 0 2.211-1.998l.345.362a59.062 59.062 0 0 1-2.23 2.015zm-79.577-1.906a60.02 60.02 0 0 1-2.131-2.12l.361-.346a59.906 59.906 0 0 0 2.114 2.103l-.344.363zm83.235-1.514l-.356-.351a59.818 59.818 0 0 0 2.036-2.177l.374.332a59.184 59.184 0 0 1-2.054 2.196zm-86.728-2.078a59.67 59.67 0 0 1-1.945-2.292l.39-.313c.617.766 1.266 1.53 1.928 2.272l-.373.333zm90.088-1.638l-.385-.319a59.427 59.427 0 0 0 1.845-2.342l.4.299a59.489 59.489 0 0 1-1.86 2.362zm-93.262-2.234a59.683 59.683 0 0 1-1.744-2.448l.415-.279c.55.815 1.132 1.632 1.729 2.426l-.4.301zm96.296-1.755l-.411-.285a58.13 58.13 0 0 0 1.64-2.493l.425.265a60.732 60.732 0 0 1-1.654 2.513zm-99.131-2.371a59.09 59.09 0 0 1-1.528-2.585l.437-.243c.484.867.994 1.729 1.516 2.563l-.425.265zm101.817-1.864l-.434-.249c.497-.863.975-1.746 1.423-2.624l.445.227a59.555 59.555 0 0 1-1.434 2.646zM9.46 92.773a59.588 59.588 0 0 1-1.302-2.705l.456-.205c.407.904.841 1.806 1.291 2.682l-.445.228zm106.604-1.966l-.453-.212c.418-.896.82-1.817 1.193-2.737l.463.188a59.34 59.34 0 0 1-1.203 2.761zM7.37 88.231a57.984 57.984 0 0 1-1.064-2.805l.472-.165c.327.933.682 1.868 1.056 2.78l-.464.19zm110.62-2.061l-.47-.172c.341-.934.662-1.887.953-2.832l.478.147a58.778 58.778 0 0 1-.961 2.857zM5.676 83.524a58.713 58.713 0 0 1-.821-2.893l.484-.124c.247.964.521 1.929.814 2.868l-.477.149zm113.832-2.135l-.482-.131c.259-.958.496-1.932.703-2.896l.489.105c-.21.972-.449 1.955-.71 2.922zM4.392 78.682a58.876 58.876 0 0 1-.569-2.952l.493-.082c.162.977.352 1.962.564 2.927l-.488.107zM120.605 76.5l-.492-.089c.175-.973.327-1.964.452-2.946l.496.063a58.045 58.045 0 0 1-.456 2.972zM3.528 73.747a58.921 58.921 0 0 1-.313-2.99l.498-.039c.078.985.183 1.982.312 2.964l-.497.065zm117.752-2.21l-.498-.046c.091-.986.158-1.987.199-2.974l.5.021a60.374 60.374 0 0 1-.201 2.999zM3.091 68.757a60.64 60.64 0 0 1-.061-2.671l.001-.334h.5l-.001.333c0 .884.021 1.775.06 2.648l-.499.024zm118.438-2.224l-.5-.003.001-.444c0-.843-.019-1.697-.055-2.538l.5-.021c.037.849.055 1.709.055 2.56l-.001.446zM3.576 63.767l-.5-.02c.04-.997.105-2.006.195-3l.498.045a59.233 59.233 0 0 0-.193 2.975zm117.281-2.202a59.518 59.518 0 0 0-.306-2.965l.496-.063c.127.987.231 1.993.308 2.99l-.498.038zM3.982 58.817l-.496-.062c.125-.995.276-1.995.45-2.972l.492.088a58.663 58.663 0 0 0-.446 2.946zm116.283-2.183a59.57 59.57 0 0 0-.559-2.928l.488-.106c.211.97.401 1.963.563 2.953l-.492.081zM4.81 53.919l-.489-.104c.208-.974.445-1.958.704-2.923l.483.13a56.217 56.217 0 0 0-.698 2.897zm114.439-2.147a58.227 58.227 0 0 0-.808-2.869l.478-.148c.297.959.571 1.933.815 2.894l-.485.123zM6.056 49.111l-.479-.146a59.47 59.47 0 0 1 .956-2.858l.47.171a58.427 58.427 0 0 0-.947 2.833zm111.765-2.096a58.55 58.55 0 0 0-1.05-2.782l.463-.188c.374.918.73 1.863 1.059 2.806l-.472.164zM7.716 44.417l-.464-.187c.373-.926.776-1.856 1.198-2.764l.453.211a60.069 60.069 0 0 0-1.187 2.74zm108.277-2.006c-.403-.9-.835-1.804-1.286-2.684l.445-.228c.454.888.89 1.799 1.296 2.708l-.455.204zM9.773 39.887l-.446-.227c.453-.892.934-1.783 1.43-2.649l.434.249a58.643 58.643 0 0 0-1.418 2.627zm104.002-1.91a57.554 57.554 0 0 0-1.511-2.566l.424-.265a59.13 59.13 0 0 1 1.524 2.588l-.437.243zM12.209 35.552l-.425-.264a60.323 60.323 0 0 1 1.649-2.516l.411.284a60.355 60.355 0 0 0-1.635 2.496zm98.976-1.808a58.109 58.109 0 0 0-1.724-2.43l.4-.3c.599.8 1.183 1.625 1.738 2.451l-.414.279zm-96.179-2.303l-.401-.299a60.57 60.57 0 0 1 1.856-2.366l.386.318a57.773 57.773 0 0 0-1.841 2.347zm93.238-1.697a59.36 59.36 0 0 0-1.923-2.276l.373-.332c.667.749 1.32 1.521 1.94 2.295l-.39.313zm-90.105-2.16l-.374-.331a60.183 60.183 0 0 1 2.048-2.2l.357.35a59.106 59.106 0 0 0-2.031 2.181zm86.835-1.578a59.824 59.824 0 0 0-2.109-2.106l.344-.362a59.186 59.186 0 0 1 2.128 2.124l-.363.344zm-83.39-1.999l-.345-.361a60.194 60.194 0 0 1 2.226-2.02l.326.379a61.634 61.634 0 0 0-2.207 2.002zm79.814-1.451a58.612 58.612 0 0 0-2.281-1.922l.312-.391a58.002 58.002 0 0 1 2.3 1.939l-.331.374zm-76.08-1.821l-.313-.39a58.998 58.998 0 0 1 2.388-1.824l.293.405a58.719 58.719 0 0 0-2.368 1.809zm72.226-1.318a59.407 59.407 0 0 0-2.436-1.724l.278-.415c.83.556 1.657 1.141 2.457 1.739l-.299.4zm-68.232-1.628l-.279-.415a60.124 60.124 0 0 1 2.531-1.616l.259.428c-.845.51-1.69 1.049-2.511 1.603zm64.125-1.175a58.998 58.998 0 0 0-2.573-1.513l.242-.438c.878.486 1.751 1 2.596 1.525l-.265.426zM33.538 15.19l-.244-.437a59.699 59.699 0 0 1 2.658-1.396l.222.448c-.892.441-1.779.907-2.636 1.385zm55.568-1.024a59.213 59.213 0 0 0-2.693-1.29l.204-.456c.91.408 1.824.845 2.717 1.301l-.228.445zm-51.142-1.207l-.206-.456c.907-.41 1.836-.802 2.764-1.166l.183.466c-.92.361-1.842.75-2.741 1.156zm46.617-.867a57.244 57.244 0 0 0-2.794-1.057l.165-.472c.945.33 1.893.688 2.818 1.066l-.189.463zm-42.014-.984l-.167-.471a59.532 59.532 0 0 1 2.859-.93l.143.479c-.947.281-1.901.592-2.835.922zm37.333-.696a58.47 58.47 0 0 0-2.868-.815l.124-.484c.966.248 1.939.525 2.892.822l-.148.477zm-32.584-.76l-.126-.484a60.19 60.19 0 0 1 2.927-.685l.102.489a60.11 60.11 0 0 0-2.903.68zM75.1 9.136a59.468 59.468 0 0 0-2.927-.569l.083-.493a60.45 60.45 0 0 1 2.951.574l-.107.488zm-22.929-.532l-.085-.494a61.69 61.69 0 0 1 2.974-.435l.061.496c-.987.12-1.98.266-2.95.433zm18.036-.335a60.52 60.52 0 0 0-2.963-.321l.041-.498c.993.083 1.998.191 2.989.324l-.067.495zm-13.11-.303l-.043-.498a61.753 61.753 0 0 1 3-.186l.019.5c-.994.037-1.995.099-2.976.184zm8.164-.15a60.293 60.293 0 0 0-2.98-.074h-.221l-.003-.5h.224c1 0 2.011.025 3.004.075l-.024.499z"/>
</svg>
