<svg xmlns="http://www.w3.org/2000/svg" viewBox="0 0 606.382 239.947">
    <style>
        .st0{fill:#5bc9e3}.st1{fill:#fff}
    </style>
    <g>
        <path class="st0" d="M141.579 66.782c.32-.299.662-.463 1.029-.567L99.426 41.283c-.149.897-.688 1.726-1.602 2.09l42.96 24.802a2.85 2.85 0 0 1 .795-1.393zM145.868 72.69c-.837.376-1.709.375-2.444.024v47.947c.425-.334.974-.547 1.654-.547.362 0 .674.07.956.174V72.586c-.057.032-.105.077-.166.104zM141.174 126.603L99.72 150.006c.888.406 1.332 1.297 1.368 2.225l41.738-23.562c-.986-.306-1.537-1.14-1.652-2.066zM49.226 68.445l43.762-25.266c-.857-.44-1.279-1.342-1.285-2.273L47.94 66.173c.858.439 1.279 1.341 1.286 2.272zM45.775 121.011c.507 0 .926.124 1.277.32V72.879c-.43.352-.989.579-1.689.579a2.72 2.72 0 0 1-.922-.163v48.058a2.676 2.676 0 0 1 1.334-.342zM94.368 149.655l-45.723-23.536c-.1.903-.587 1.766-1.454 2.188l45.459 23.401c.174-.908.758-1.726 1.718-2.053zM65.917 194.681c1.044.109 1.696.753 1.958 1.562l25.881-38.362c-.982-.445-1.403-1.506-1.304-2.531l-26.535 39.331zM121.362 200.879c-.426-.773-.441-1.777-.073-2.611H67.74c.24.873.064 1.881-.503 2.611h54.125z"/>
        <path class="st0" d="M95.238 46.228c-3.228 0-5.855-2.627-5.855-5.855s2.627-5.855 5.855-5.855c3.228 0 5.855 2.627 5.855 5.855s-2.627 5.855-5.855 5.855zm0-9.1c-1.789 0-3.244 1.455-3.244 3.244s1.455 3.244 3.244 3.244c1.789 0 3.244-1.455 3.244-3.244s-1.455-3.244-3.244-3.244z"/>
        <path class="st0" d="M91.106 42.091l-9.588.987 6.669 9.221 3.819-8.529c-.518-.41-.817-1.024-.9-1.679zM45.747 74.969c-3.228 0-5.855-2.627-5.855-5.855s2.627-5.855 5.855-5.855 5.855 2.627 5.855 5.855-2.627 5.855-5.855 5.855zm0-9.1c-1.789 0-3.244 1.455-3.244 3.244s1.455 3.244 3.244 3.244 3.244-1.455 3.244-3.244-1.456-3.244-3.244-3.244z"/>
        <path transform="rotate(-60.843 95.008 97.336)" class="st0" d="M93.702 45.066h2.61v104.543h-2.61z"/>
        <path class="st0" d="M100.047 42.77a2.404 2.404 0 0 1-.975.553l4.079 7.891 6.142-9.58-8.434-.393a2.812 2.812 0 0 1-.812 1.529zM144.729 74.969c-3.228 0-5.855-2.627-5.855-5.855s2.627-5.855 5.855-5.855 5.855 2.627 5.855 5.855-2.626 5.855-5.855 5.855zm0-9.1c-1.789 0-3.244 1.455-3.244 3.244s1.455 3.244 3.244 3.244 3.244-1.455 3.244-3.244-1.455-3.244-3.244-3.244zM45.718 73.194c-.132 0-.249-.022-.371-.037l-5.291 9.164h11.38l-5.294-9.17c-.138.02-.274.043-.424.043zM45.747 130.675c-3.228 0-5.855-2.627-5.855-5.855s2.627-5.855 5.855-5.855 5.855 2.627 5.855 5.855-2.627 5.855-5.855 5.855zm0-9.099c-1.789 0-3.244 1.455-3.244 3.244s1.455 3.244 3.244 3.244 3.244-1.455 3.244-3.244-1.456-3.244-3.244-3.244z"/>
        <path class="st0" d="M144.38 74.34c-.392 0-.73-.076-1.029-.198l-4.312 7.469h11.38l-4.474-7.748c-.411.294-.932.477-1.565.477zM49.436 73.052l4.35 7.535 5.69-9.856h-9.054c.03.867-.302 1.757-.986 2.321zM144.729 130.675c-3.228 0-5.855-2.627-5.855-5.855s2.627-5.855 5.855-5.855 5.855 2.627 5.855 5.855-2.626 5.855-5.855 5.855zm0-9.099c-1.789 0-3.244 1.455-3.244 3.244s1.455 3.244 3.244 3.244 3.244-1.455 3.244-3.244-1.455-3.244-3.244-3.244zM48.723 128.635l4.517 7.823 5.69-9.856h-9.431c.003.743-.258 1.492-.776 2.033z"/>
        <path class="st0" d="M140.835 126.603h-8.201l5.69 9.856 4.284-7.421c-1.177-.307-1.758-1.35-1.773-2.435zM96.589 159.16a5.862 5.862 0 0 1-5.855-5.855c0-3.228 2.627-5.855 5.855-5.855s5.855 2.627 5.855 5.855a5.862 5.862 0 0 1-5.855 5.855zm0-9.1a3.247 3.247 0 0 0-3.244 3.244 3.247 3.247 0 0 0 3.244 3.244 3.247 3.247 0 0 0 3.244-3.244 3.248 3.248 0 0 0-3.244-3.244z"/>
        <path class="st0" d="M94.005 157.273c-1.401 0-2.193-.879-2.425-1.923l-7.136 4.12 9.856 5.69v-7.916c-.099.009-.191.029-.295.029zM63.194 205.429a5.862 5.862 0 0 1-5.855-5.855 5.862 5.862 0 0 1 5.855-5.855 5.862 5.862 0 0 1 5.855 5.855 5.862 5.862 0 0 1-5.855 5.855zm0-9.099a3.247 3.247 0 0 0-3.244 3.244c0 1.789 1.455 3.244 3.244 3.244s3.244-1.455 3.244-3.244a3.248 3.248 0 0 0-3.244-3.244z"/>
        <path class="st0" d="M67.617 200.299l8.014 4.627v-11.38l-7.834 4.523c.225.717.156 1.54-.18 2.23zM125.422 205.09c-3.228 0-5.855-2.627-5.855-5.855s2.627-5.855 5.855-5.855 5.855 2.627 5.855 5.855-2.627 5.855-5.855 5.855zm0-9.099a3.247 3.247 0 0 0-3.244 3.244 3.247 3.247 0 0 0 3.244 3.244 3.247 3.247 0 0 0 3.244-3.244 3.247 3.247 0 0 0-3.244-3.244z"/>
        <g>
            <path class="st1" d="M177.849 132.447h27.374c13.687 0 21.348 9.397 21.348 20.53 0 11.134-7.865 20.531-21.348 20.531h-18.896v27.067h-8.478v-68.128zm26.353 7.559h-17.875v25.944h17.875c8.069 0 13.585-5.312 13.585-12.973 0-7.66-5.516-12.971-13.585-12.971zM257.625 150.016c14.913 0 23.697 11.645 23.697 26.455v1.94h-39.937c.613 9.295 7.15 17.058 17.772 17.058 5.618 0 11.338-2.247 15.219-6.23l3.677 5.005c-4.903 4.903-11.542 7.559-19.611 7.559-14.606 0-25.127-10.521-25.127-25.944.001-14.301 10.215-25.843 24.31-25.843zm-16.24 22.778h32.379c-.102-7.354-5.005-16.445-16.241-16.445-10.52 0-15.73 8.886-16.138 16.445zM315.133 150.016c14.913 0 23.697 11.645 23.697 26.455v1.94h-39.938c.613 9.295 7.15 17.058 17.772 17.058 5.618 0 11.338-2.247 15.219-6.23l3.677 5.005c-4.903 4.903-11.542 7.559-19.611 7.559-14.606 0-25.127-10.521-25.127-25.944.002-14.301 10.216-25.843 24.311-25.843zm-16.24 22.778h32.379c-.102-7.354-5.005-16.445-16.241-16.445-10.52 0-15.73 8.886-16.138 16.445zM351.191 151.241h7.661v7.968c3.983-5.21 9.704-8.989 16.445-8.989v7.865c-.919-.204-1.838-.307-3.064-.307-4.699 0-11.134 3.882-13.381 7.865v34.933h-7.661v-49.335zM386.226 132.447h23.595c12.666 0 19.917 8.887 19.917 19.305 0 10.419-7.456 19.305-19.917 19.305h-20.327v29.52h-3.269v-68.13zm23.493 3.065h-20.225v32.481h20.225c10.01 0 16.445-6.844 16.445-16.241 0-9.397-6.435-16.24-16.445-16.24zM472.54 194.55c-4.597 5.005-10.112 7.252-17.058 7.252-8.682 0-17.262-5.924-17.262-16.444 0-10.521 8.478-16.445 17.262-16.445 6.946 0 12.461 2.247 17.058 7.252V165.03c0-7.967-6.333-12.257-13.892-12.257-6.435 0-11.236 2.247-15.832 7.763l-2.349-2.043c4.801-5.617 9.908-8.478 18.181-8.478 9.704 0 16.956 4.903 16.956 14.913v35.647h-3.064v-6.025zm0-15.321c-3.779-5.005-9.806-7.559-16.241-7.559-8.989 0-14.708 6.026-14.708 13.688 0 7.66 5.72 13.687 14.708 13.687 6.435 0 12.461-2.554 16.241-7.559v-12.257zM530.354 192.303c-3.371 5.107-10.01 9.499-17.772 9.499-13.279 0-22.063-10.214-22.063-25.842 0-15.525 8.784-25.944 22.063-25.944 7.354 0 13.789 3.882 17.772 9.704v-27.272h3.064v68.129h-3.064v-8.274zm0-29.52c-3.064-5.209-10.112-10.01-17.772-10.01-12.053 0-18.692 10.214-18.692 23.187 0 12.972 6.64 23.084 18.692 23.084 7.661 0 14.708-4.597 17.772-9.806v-26.455z"/>
        </g>
        <path class="st0" d="M565.441 149.469a5.665 5.665 0 0 0 .714-1.578 9.032 9.032 0 0 0 .279-1.574c.025-.28.052-.61.057-.93.001-.065-.039-.106-.106-.109a10.83 10.83 0 0 0-.901.001c-.08.003-.096.077-.1.108-.009.083-.014.166-.019.248a7.06 7.06 0 0 1-.015.205c-.033.365-.097.69-.199.993-.14.419-.488.725-.93.817-.449.093-.924-.048-1.208-.362a3.533 3.533 0 0 1-.574-.873c-.315-.661-.495-1.352-.653-2.002a.627.627 0 0 1 .012-.316 95.992 95.992 0 0 0 1.06-4.344c.289-1.292.581-2.584.873-3.875.269-1.192.538-2.383.805-3.575a.269.269 0 0 0 .002-.109c-.012-.045-.023-.091-.161-.091h-3.158c-.146 0-.174.024-.206.168l-.761 3.415-.37 1.058-.533-1.154c-.046-.106-.09-.207-.136-.307-.412-.9-.824-1.588-1.299-2.163a4.234 4.234 0 0 0-1.636-1.228 4.602 4.602 0 0 0-1.796-.361c-.295 0-.596.027-.9.081a6.499 6.499 0 0 0-3.34 1.685c-.957.892-1.644 2.017-2.101 3.438-.387 1.205-.591 2.493-.623 3.939a16.955 16.955 0 0 0 .238 3.35c.24 1.347.639 2.472 1.222 3.438a6.758 6.758 0 0 0 1.517 1.769 6.471 6.471 0 0 0 3.372 1.419c.737.087 1.521.031 2.396-.171a5.948 5.948 0 0 0 1.805-.746 6.609 6.609 0 0 0 1.685-1.531c.091-.116.18-.234.271-.355l.599-.792.293.717-.409.167.418-.145.026.066c.208.596.42 1.062.666 1.464.299.489.608.83.974 1.072.63.418 1.52.383 2.116-.083.26-.202.486-.462.734-.844zm-6.451-7.819c-.108.399-.204.801-.301 1.203-.09.376-.181.752-.28 1.126-.262.986-.526 1.723-.855 2.391-.347.704-.714 1.22-1.154 1.625-.513.472-1.097.711-1.739.711h-.127c-.913 0-1.647-.425-2.184-1.266-.318-.498-.544-1.064-.733-1.835-.161-.657-.268-1.373-.336-2.252a27.1 27.1 0 0 1-.053-3.008c.042-1.297.16-2.349.368-3.309.156-.721.356-1.299.627-1.82.288-.551.612-.944 1.023-1.237a2.484 2.484 0 0 1 1.513-.468c.356.005.629.173.827.319.249.184.477.418.717.737.556.74.95 1.551 1.263 2.247.56 1.248.999 2.54 1.399 3.756a1.8 1.8 0 0 1 .025 1.08z"/>
    </g>
</svg>
