<svg xmlns="http://www.w3.org/2000/svg" viewBox="0 0 200 190">
  <path fill='#23e0f7' d="M135.37 83.21V66.7a35.37 35.37 0 0 0-70.75 0v16.51A14.16 14.16 0 0 0 50.48 97.4v47.08a14.19 14.19 0 0 0 14.19 14.19h70.67a14.16 14.16 0 0 0 14.19-14.19V97.4a14.19 14.19 0 0 0-14.16-14.19zm-66-16.54a30.66 30.66 0 0 1 61.32 0v16.54h-4.72V66.74a25.94 25.94 0 1 0-51.88 0v16.47h-4.75zm51.88 0v16.5H78.78V66.7a21.22 21.22 0 1 1 42.45 0zm23.58 77.82a9.44 9.44 0 0 1-9.42 9.43h-70.8a9.43 9.43 0 0 1-9.42-9.43v-47.1a9.44 9.44 0 0 1 9.42-9.46h70.77a9.43 9.43 0 0 1 9.42 9.46z"/>
  <path fill='#23e0f7' d="M100 111.22h.45a7.21 7.21 0 0 1 6.43 6.4 6.9 6.9 0 0 1-4.27 6.87l1.39 10.4h-8l1.24-10.43a6.9 6.9 0 0 1-4.18-6V118a6.9 6.9 0 0 1 6.9-6.76m0-4.34a11.3 11.3 0 0 0-11.24 11v.67a11.45 11.45 0 0 0 3.89 8.07l-.93 7.75-.58 4.86H109l-.68-4.94-1.05-7.63a11.24 11.24 0 0 0 3.92-9.34 11.55 11.55 0 0 0-10.49-10.44h-.73z"/>
</svg>
