<svg xmlns="http://www.w3.org/2000/svg" viewBox="0 0 200 190">
  <path fill='#23e0f7' d="M141.79 101h-.42a44.72 44.72 0 0 1-17.49 29.83v21a11.94 11.94 0 0 1-11.94 11.94H82.09a11.94 11.94 0 0 1-11.94-11.94v-21a44.65 44.65 0 0 1 0-71.51v-21a11.94 11.94 0 0 1 11.94-11.97h29.85a11.94 11.94 0 0 1 11.94 11.94v21a44.71 44.71 0 0 1 17.49 29.83h.42a6 6 0 0 1 0 11.94zm-65.67 50.71a6 6 0 0 0 6 6h29.85a6 6 0 0 0 6-6v-17.13a44.67 44.67 0 0 1-41.79 0zm41.79-113.42a6 6 0 0 0-6-6H82.09a6 6 0 0 0-6 6v17.13a44.67 44.67 0 0 1 41.79 0zM97 56.2A38.8 38.8 0 1 0 135.82 95 38.8 38.8 0 0 0 97 56.2zm3 47.21v18.46a3 3 0 0 1-6 0V103.4a8.84 8.84 0 0 1-5-12.3l-9-9a2.91 2.91 0 1 1 4.12-4.12l9 9A8.92 8.92 0 1 1 100 103.4zM97 92a3 3 0 1 0 3 3 3 3 0 0 0-3-3z"/>
</svg>
