<svg xmlns="http://www.w3.org/2000/svg" viewBox="0 0 287.45 283">
  <path fill='#23e0f7' d="M85.87 98.21V69.14h-8.68a2.89 2.89 0 0 1 0-5.79h156.26a2.89 2.89 0 0 1 0 5.79h-5.81v101.32h-56.06l21.12 45.09a2.89 2.89 0 1 1-5.23 2.43l-22.27-47.52h-14L129 218a2.89 2.89 0 1 1-5.23-2.43l21.12-45.09H124.4v20.26H51.1V162.5a28.31 28.31 0 0 1 20.28-27L73 135l1.21 1.17a19.37 19.37 0 0 0 11.6 5.39v-3.95a19.76 19.76 0 0 1-12.06-33.64 19.76 19.76 0 0 1 12-5.69zm73.32 15.07l.12-.12m-67.65-44v29.31a19.78 19.78 0 0 1 10.12 33.37 19.8 19.8 0 0 1-10.1 5.41v3.95a17.32 17.32 0 0 0 3.43-1 19.46 19.46 0 0 0 6.23-4.06l1.21-1.17 1.61.48a28.43 28.43 0 0 1 14.65 10.2 28.09 28.09 0 0 1 5.64 16.85v2.17h97.42V69.13H91.66zm6 38.86a14 14 0 1 0 0 19.78 14 14 0 0 0 0-19.78zm6.54 76.93l-.06-11.56a2.89 2.89 0 0 1 5.77 0l.06 11.58h8.66v-22.49a22.29 22.29 0 0 0-4.47-13.4 22.73 22.73 0 0 0-10.16-7.63 24.8 24.8 0 0 1-6.77 4.08 25.19 25.19 0 0 1-25.71-4.08 22.52 22.52 0 0 0-14.63 21v22.43h8.72l-.06-11.56a2.89 2.89 0 0 1 5.77 0l.06 11.58h32.8z"/>
</svg>
