<svg xmlns="http://www.w3.org/2000/svg" viewBox="0 0 287.45 283">
  <path fill='#23e0f7' d="M77.14 107l22.78.32 11.24-2.84a3.18 3.18 0 0 1 .7-.08h22.66l7-7.8.87-1h25.19l.7.4 19.6 11.31 22.38-.12v-3.09h26v52.54h-26v-5.56h-13.53l-14.6 6.92 4.4 4.62a2.89 2.89 0 0 1-.11 4.08 2.85 2.85 0 0 1-.92.59l-47.95 19.92a2.87 2.87 0 0 1-3.11-.59l-41-35.54-16.26-.29v5.88h-26V104.1h26v2.9zm150.51 32v5.8h-5.8V139zm-162.09 0v5.8h-5.8V139zm144.71-26.08l-23.14.12h-.78l-.67-.39-19.57-11.3H145l-6.89 7.65v.05l-.23.25-20.63 22.92a3.78 3.78 0 0 0 .13 2.85 6 6 0 0 0 1.79 2.32 6.17 6.17 0 0 0 2.9 1.29c1.87.29 4.14-.27 6.53-2.2l.17-.12L146.68 124l2-1.41 1.7 1.81 27.52 29.17 16.93-8 .6-.28h14.82v-32.36zm20.27-3.08h-14.47v41h14.47zM132.71 167a2.88 2.88 0 0 1 3.81-4.32l14.3 12.66 5.29-2.2-12.29-10.9a2.88 2.88 0 0 1 3.81-4.32l14.37 12.8 5.78-2.4L156 157.89a2.88 2.88 0 1 1 3.81-4.32l13.87 12.29 5.7-2.37-2.82-3-1.41-1.49-.05-.05-27.17-28.79L132.1 141c-3.79 3-7.66 3.88-11 3.36a12 12 0 0 1-9.12-7 9.33 9.33 0 0 1 .19-8.07l.17-.33.24-.25 16.71-18.55H112.2L101 113a2.64 2.64 0 0 1-.74.08l-23.12-.32V145l17.41.31H95.22l.35.12h.05a2.6 2.6 0 0 1 .75.47l40.57 35.15 7.92-3.29-12.19-10.8zm-61.36-57.15H56.88v41h14.47z"/>
</svg>
