<svg xmlns="http://www.w3.org/2000/svg" viewBox="0 0 287.45 283">
  <path fill='#23e0f7' d="M176.11 165.47v62.79H56.85V54.73H142l.79.79 32.53 32.53.79.79v28.49l9.27-15.77 1.37-2.32 17.94-30.54c2.6-4.42 7.06-5.57 11.37-4.67a14.89 14.89 0 0 1 4.47 1.76 14.48 14.48 0 0 1 3.7 3 10.34 10.34 0 0 1 2.53 9.77c2.64 2 6.07 6.36 1.72 13.74l-17.85 30.39A2.64 2.64 0 0 1 209 124l-3.72 1a2.7 2.7 0 0 1-1.35-5.23l2.64-.68 17.28-29.42c1.69-2.89 1.19-4.8.32-5.95l-16.39 27.88-31.67 53.89zm-31.81 18.88l-3.3 16.86 13.11-11.1-9.79-5.75zm-10.13 23.4l5.55-28.18a2.56 2.56 0 0 1 .32-.84v-.07l30.59-52.07V92.71h-29.76a2.72 2.72 0 0 1-2.71-2.71V60.18H62.23v162.68h108.46v-48.14l-9.5 16.17v.1a3.29 3.29 0 0 1-.63.79l-21.93 18.52a2.74 2.74 0 0 1-2.32.65 2.7 2.7 0 0 1-2.14-3.18zm11.91-28.63l11.71 6.88 44-74.83-11.71-6.88-44 74.83zm46.7-79.48l11.71 6.88 16.47-28v-.05l.13-.22a5 5 0 0 0-1-5.8 9.58 9.58 0 0 0-2.37-1.94 9.27 9.27 0 0 0-2.72-1.17c-2.17-.45-4.4.05-5.6 2.1l-16.62 28.22zM73.1 133.37h58.2v5.42H73.1zm0-10.85h86.76v5.42H73.1zm0-10.85h86.76v5.42H73.1zm0-10.85h86.76v5.42H73.1zm93.76-13.56L143.58 64v23.26z"/>
</svg>
